<svg xmlns="http://www.w3.org/2000/svg" version="1.1" xmlns:xlink="http://www.w3.org/1999/xlink" xmlns:svgjs="http://svgjs.com/svgjs" width="1440" height="560" preserveAspectRatio="none" viewBox="0 0 1440 560">
    <g mask="url(&quot;#SvgjsMask1011&quot;)" fill="none">
        <rect width="1440" height="560" x="0" y="0" fill="rgba(156, 39, 176, 1)"></rect>
        <path d="M1536 560L0 560 L0 336.6Q106 322.61, 120 428.61Q148.42 385.03, 192 413.45Q191.9 293.35, 312 293.25Q408.04 317.29, 384 413.33Q470.15 379.48, 504 465.62Q522.15 411.77, 576 429.92Q598.93 380.85, 648 403.77Q669.6 305.37, 768 326.96Q816.64 255.6, 888 304.24Q943.06 287.3, 960 342.36Q1025.44 287.8, 1080 353.24Q1127.72 328.97, 1152 376.69Q1230.68 383.37, 1224 462.05Q1208.88 326.93, 1344 311.8Q1374.19 269.99, 1416 300.18Q1489.12 253.3, 1536 326.42z" fill="rgba(105, 27, 118, 1)"></path>
        <path d="M1512 560L0 560 L0 570.97Q53.36 504.33, 120 557.69Q146.07 463.76, 240 489.84Q254.23 432.06, 312 446.29Q339.92 402.21, 384 430.13Q439.65 413.78, 456 469.44Q571.16 464.6, 576 579.76Q651.25 535.01, 696 610.27Q708.49 502.76, 816 515.25Q830.82 458.07, 888 472.9Q911.64 424.54, 960 448.19Q1047.57 415.75, 1080 503.32Q1101.37 404.69, 1200 426.05Q1246.7 400.75, 1272 447.45Q1399.85 455.3, 1392 583.15Q1460.66 531.82, 1512 600.48z" fill="rgba(255, 255, 255, 1)"></path>
    </g>
    <defs>
        <mask id="SvgjsMask1011">
            <rect width="1440" height="560" fill="#ffffff"></rect>
        </mask>
    </defs>
</svg>