<svg xmlns="http://www.w3.org/2000/svg" version="1.1" xmlns:xlink="http://www.w3.org/1999/xlink" xmlns:svgjs="http://svgjs.com/svgjs" width="1440" height="560" preserveAspectRatio="none" viewBox="0 0 1440 560">
    <g mask="url(&quot;#SvgjsMask1000&quot;)" fill="none">
        <rect width="1440" height="560" x="0" y="0" fill="#1e3266"></rect>
        <path d="M1488 560L0 560 L0 390.26Q100.33 370.59, 120 470.92Q141.84 420.76, 192 442.6Q213.88 392.49, 264 414.37Q261.54 291.91, 384 289.46Q448.58 282.04, 456 346.63Q500.24 270.87, 576 315.11Q620.75 239.86, 696 284.61Q741.42 258.03, 768 303.46Q895.88 311.35, 888 439.23Q938.01 417.25, 960 467.26Q989.65 424.91, 1032 454.57Q1074.27 376.84, 1152 419.1Q1165.82 312.92, 1272 326.73Q1298.37 281.1, 1344 307.46Q1396.59 288.05, 1416 340.64Q1487.98 340.63, 1488 412.61z" fill="rgba(37, 70, 125, 1)"></path>
        <path d="M1512 560L0 560 L0 539.36Q40.46 459.82, 120 500.28Q174.34 434.62, 240 488.96Q299.83 476.79, 312 536.63Q410.79 515.42, 432 614.22Q443.87 554.09, 504 565.95Q550.74 492.69, 624 539.43Q670.21 465.63, 744 511.84Q738.15 434, 816 428.15Q883.91 376.06, 936 443.97Q1071.56 459.53, 1056 595.08Q1007.65 474.74, 1128 426.39Q1253.83 480.21, 1200 606.04Q1182.52 468.56, 1320 451.08Q1346.12 405.19, 1392 431.31Q1467.59 386.9, 1512 462.49z" fill="rgba(255, 255, 255, 1)"></path>
    </g>
    <defs>
        <mask id="SvgjsMask1000">
            <rect width="1440" height="560" fill="#ffffff"></rect>
        </mask>
    </defs>
</svg>