<svg xmlns="http://www.w3.org/2000/svg" version="1.1" xmlns:xlink="http://www.w3.org/1999/xlink" xmlns:svgjs="http://svgjs.com/svgjs" width="1440" height="560" preserveAspectRatio="none" viewBox="0 0 1440 560">
    <g mask="url(&quot;#SvgjsMask1011&quot;)" fill="none">
        <rect width="1440" height="560" x="0" y="0" fill="rgba(175, 180, 43, 1)"></rect>
        <path d="M1464 560L0 560 L0 331.6Q10.25 269.86, 72 280.11Q143.91 232.02, 192 303.94Q238.47 278.41, 264 324.88Q346.59 287.47, 384 370.05Q464.43 378.48, 456 458.91Q413.13 296.05, 576 253.18Q677.51 234.69, 696 336.21Q796.89 365.11, 768 466Q717.27 343.27, 840 292.55Q933.21 265.76, 960 358.98Q1002.71 329.69, 1032 372.4Q1105.49 325.88, 1152 399.37Q1218.83 346.19, 1272 413.02Q1277.75 298.77, 1392 304.52Q1421.36 261.88, 1464 291.24z" fill="rgba(115, 118, 31, 1)"></path>
        <path d="M1560 560L0 560 L0 525.98Q11.83 465.81, 72 477.64Q146.47 432.11, 192 506.57Q290.44 485.01, 312 583.45Q322.73 474.18, 432 484.91Q459.82 440.74, 504 468.56Q546.29 390.85, 624 433.14Q673.66 362.81, 744 412.47Q839.99 388.46, 864 484.44Q966.95 467.39, 984 570.35Q1054.36 520.71, 1104 591.07Q1110.38 525.45, 1176 531.83Q1154.66 438.5, 1248 417.16Q1320.51 417.68, 1320 490.19Q1422.7 472.89, 1440 575.6Q1448.67 464.27, 1560 472.95z" fill="rgba(255, 255, 255, 1)"></path>
    </g>
    <defs>
        <mask id="SvgjsMask1011">
            <rect width="1440" height="560" fill="#ffffff"></rect>
        </mask>
    </defs>
</svg>