<svg xmlns="http://www.w3.org/2000/svg" version="1.1" xmlns:xlink="http://www.w3.org/1999/xlink" xmlns:svgjs="http://svgjs.com/svgjs" width="1440" height="560" preserveAspectRatio="none" viewBox="0 0 1440 560">
    <g mask="url(&quot;#SvgjsMask1027&quot;)" fill="none">
        <rect width="1440" height="560" x="0" y="0" fill="rgba(64, 233, 30, 1)"></rect>
        <path d="M1488 560L0 560 L0 357.07Q66.8 351.87, 72 418.67Q116.55 391.22, 144 435.76Q149.53 369.29, 216 374.82Q238.97 277.79, 336 300.76Q384.23 228.99, 456 277.22Q513.29 262.51, 528 319.8Q596.31 316.12, 600 384.43Q673.56 385.99, 672 459.55Q607.43 322.98, 744 258.4Q853.05 295.45, 816 404.5Q805.02 321.52, 888 310.54Q939.52 242.06, 1008 293.59Q1106.33 271.91, 1128 370.24Q1182.53 304.76, 1248 359.29Q1259.65 250.94, 1368 262.59Q1433.78 208.37, 1488 274.14z" fill="rgba(55, 200, 26, 1)"></path>
        <path d="M1488 560L0 560 L0 440.24Q73.39 441.63, 72 515.02Q169.54 492.56, 192 590.09Q206.31 532.4, 264 546.72Q289.42 452.14, 384 477.56Q463.05 436.61, 504 515.65Q551.37 491.02, 576 538.39Q619.87 510.25, 648 554.12Q704.38 538.5, 720 594.89Q772.09 526.98, 840 579.07Q838.11 505.18, 912 503.29Q933.09 404.38, 1032 425.48Q1073.54 395.02, 1104 436.56Q1250.76 463.32, 1224 610.08Q1179.76 493.85, 1296 449.61Q1311.18 392.8, 1368 407.98Q1434.03 354.01, 1488 420.04z" fill="rgba(255, 255, 255, 1)"></path>
    </g>
    <defs>
        <mask id="SvgjsMask1027">
            <rect width="1440" height="560" fill="#ffffff"></rect>
        </mask>
    </defs>
</svg>