<svg xmlns="http://www.w3.org/2000/svg" version="1.1" xmlns:xlink="http://www.w3.org/1999/xlink" xmlns:svgjs="http://svgjs.com/svgjs" width="1440" height="560" preserveAspectRatio="none" viewBox="0 0 1440 560">
    <g mask="url(&quot;#SvgjsMask1023&quot;)" fill="none">
        <rect width="1440" height="560" x="0" y="0" fill="rgba(233, 174, 30, 1)"></rect>
        <path d="M1512 560L0 560 L0 359.1Q25.4 264.5, 120 289.9Q140.51 238.41, 192 258.92Q260.96 207.88, 312 276.84Q408.31 253.15, 432 349.47Q512.75 310.22, 552 390.97Q575.45 342.42, 624 365.86Q634.08 255.94, 744 266.02Q812.19 214.21, 864 282.4Q969.46 267.86, 984 373.31Q1038 355.31, 1056 409.31Q1107.8 389.11, 1128 440.91Q1200.41 393.32, 1248 465.73Q1226.47 372.2, 1320 350.66Q1308.2 266.87, 1392 255.07Q1517.38 260.44, 1512 385.82z" fill="rgba(182, 136, 24, 1)"></path>
        <path d="M1464 560L0 560 L0 573.76Q66.2 519.96, 120 586.17Q143.28 489.45, 240 512.74Q280.33 433.07, 360 473.4Q431.92 425.32, 480 497.24Q570.75 515.99, 552 606.74Q529.47 464.21, 672 441.68Q723 372.68, 792 423.68Q872.81 384.49, 912 465.3Q1001.58 434.88, 1032 524.45Q1045.38 417.83, 1152 431.21Q1205.62 364.83, 1272 418.45Q1379.44 405.89, 1392 513.33Q1397.04 446.37, 1464 451.4z" fill="rgba(255, 255, 255, 1)"></path>
    </g>
    <defs>
        <mask id="SvgjsMask1023">
            <rect width="1440" height="560" fill="#ffffff"></rect>
        </mask>
    </defs>
</svg>