<svg xmlns="http://www.w3.org/2000/svg" version="1.1" xmlns:xlink="http://www.w3.org/1999/xlink" xmlns:svgjs="http://svgjs.com/svgjs" width="1440" height="560" preserveAspectRatio="none" viewBox="0 0 1440 560">
    <g mask="url(&quot;#SvgjsMask1035&quot;)" fill="none">
        <rect width="1440" height="560" x="0" y="0" fill="rgba(229, 115, 115, 1)"></rect>
        <path d="M1512 560L0 560 L0 334.52Q30.49 293, 72 323.49Q72.61 252.1, 144 252.7Q209.29 197.99, 264 263.28Q408.74 288.01, 384 432.75Q382.4 359.15, 456 357.56Q481.9 263.46, 576 289.35Q644.37 237.72, 696 306.08Q812.66 302.74, 816 419.4Q823.82 355.21, 888 363.03Q897.78 252.81, 1008 262.59Q1049.81 232.39, 1080 274.2Q1227.22 301.42, 1200 448.65Q1157.43 334.08, 1272 291.51Q1313.91 213.43, 1392 255.34Q1457.19 200.54, 1512 265.73z" fill="rgba(170, 86, 86, 1)"></path>
        <path d="M1512 560L0 560 L0 542.27Q4.34 426.61, 120 430.95Q148.62 387.56, 192 416.18Q256.04 408.22, 264 472.26Q311.12 447.38, 336 494.49Q356.44 394.93, 456 415.37Q529.91 417.28, 528 491.19Q621.09 464.28, 648 557.37Q651.65 441.02, 768 444.67Q785.45 390.13, 840 407.58Q909.47 357.05, 960 426.53Q1077.03 423.56, 1080 540.59Q1132.8 473.38, 1200 526.18Q1231.64 437.82, 1320 469.47Q1326.52 403.99, 1392 410.5Q1462.26 360.75, 1512 431.01z" fill="rgba(255, 255, 255, 1)"></path>
    </g>
    <defs>
        <mask id="SvgjsMask1035">
            <rect width="1440" height="560" fill="#ffffff"></rect>
        </mask>
    </defs>
</svg>