<svg xmlns="http://www.w3.org/2000/svg" version="1.1" xmlns:xlink="http://www.w3.org/1999/xlink" xmlns:svgjs="http://svgjs.com/svgjs" width="1440" height="560" preserveAspectRatio="none" viewBox="0 0 1440 560">
    <g mask="url(&quot;#SvgjsMask1046&quot;)" fill="none">
        <rect width="1440" height="560" x="0" y="0" fill="rgba(165, 214, 167, 1)"></rect>
        <path d="M1464 560L0 560 L0 301.54Q116.29 297.83, 120 414.12Q199.72 373.84, 240 453.55Q243.93 385.48, 312 389.41Q324.93 330.34, 384 343.27Q462.01 301.28, 504 379.29Q589.55 344.84, 624 430.39Q652.73 387.12, 696 415.84Q722.75 370.59, 768 397.34Q857.74 367.08, 888 456.82Q913.22 410.04, 960 435.26Q989.36 392.62, 1032 421.98Q1023.67 293.65, 1152 285.32Q1199.38 212.7, 1272 260.09Q1373.87 241.95, 1392 343.82Q1459.68 339.5, 1464 407.18z" fill="rgba(132, 175, 134, 1)"></path>
        <path d="M1488 560L0 560 L0 492.57Q74.19 446.76, 120 520.96Q133.67 462.63, 192 476.3Q202.6 414.9, 264 425.5Q291.74 381.24, 336 408.97Q418.85 371.82, 456 454.67Q538.16 464.83, 528 546.99Q527.3 426.29, 648 425.59Q675.22 380.81, 720 408.03Q779.5 395.53, 792 455.03Q902.69 493.72, 864 604.41Q862.39 482.8, 984 481.19Q1000.68 425.87, 1056 442.54Q1099.31 365.85, 1176 409.16Q1264.66 377.83, 1296 466.49Q1407.62 506.11, 1368 617.73Q1329.77 459.5, 1488 421.27z" fill="rgba(255, 255, 255, 1)"></path>
    </g>
    <defs>
        <mask id="SvgjsMask1046">
            <rect width="1440" height="560" fill="#ffffff"></rect>
        </mask>
    </defs>
</svg>