<svg xmlns="http://www.w3.org/2000/svg" version="1.1" xmlns:xlink="http://www.w3.org/1999/xlink" xmlns:svgjs="http://svgjs.com/svgjs" width="1440" height="560" preserveAspectRatio="none" viewBox="0 0 1440 560">
    <g mask="url(&quot;#SvgjsMask1030&quot;)" fill="none">
        <rect width="1440" height="560" x="0" y="0" fill="rgba(233, 30, 99, 1)"></rect>
        <path d="M1488 560L0 560 L0 372.58Q63.55 364.13, 72 427.68Q90.83 374.51, 144 393.35Q147.75 325.11, 216 328.86Q252.76 245.62, 336 282.38Q383.05 209.43, 456 256.48Q561.15 241.63, 576 346.79Q615.43 266.22, 696 305.65Q743.9 281.55, 768 329.45Q843.53 284.98, 888 360.51Q890.55 291.06, 960 293.61Q1005.47 219.08, 1080 264.54Q1138.07 250.61, 1152 308.68Q1181.15 265.84, 1224 294.99Q1277.93 276.93, 1296 330.86Q1330.47 245.34, 1416 279.81Q1464.28 256.09, 1488 304.36z" fill="rgba(193, 28, 84, 1)"></path>
        <path d="M1560 560L0 560 L0 551.29Q-6.79 472.5, 72 465.7Q82.12 403.82, 144 413.94Q188.5 386.44, 216 430.94Q281.08 424.02, 288 489.1Q348.32 477.42, 360 537.74Q379.36 437.1, 480 456.45Q509.25 413.7, 552 442.96Q645.64 416.61, 672 510.25Q744.76 463.01, 792 535.77Q848.42 520.19, 864 576.62Q871.61 512.23, 936 519.83Q921.88 433.71, 1008 419.58Q1145.63 437.21, 1128 574.83Q1110.65 485.48, 1200 468.13Q1239.97 388.11, 1320 428.08Q1407.29 395.37, 1440 482.65Q1538.91 461.56, 1560 560.46z" fill="rgba(255, 255, 255, 1)"></path>
    </g>
    <defs>
        <mask id="SvgjsMask1030">
            <rect width="1440" height="560" fill="#ffffff"></rect>
        </mask>
    </defs>
</svg>