<svg xmlns="http://www.w3.org/2000/svg" version="1.1" xmlns:xlink="http://www.w3.org/1999/xlink" xmlns:svgjs="http://svgjs.com/svgjs" width="1440" height="560" preserveAspectRatio="none" viewBox="0 0 1440 560">
    <g mask="url(&quot;#SvgjsMask1038&quot;)" fill="none">
        <rect width="1440" height="560" x="0" y="0" fill="rgba(209, 196, 233, 1)"></rect>
        <path d="M1560 560L0 560 L0 372.82Q4.99 305.81, 72 310.8Q78.77 245.56, 144 252.33Q209.4 197.73, 264 263.13Q330.13 257.26, 336 323.39Q394.5 309.88, 408 368.38Q485.61 325.99, 528 403.59Q593.26 396.85, 600 462.11Q626.15 416.26, 672 442.42Q680.19 330.61, 792 338.8Q821.43 248.23, 912 277.65Q978.24 223.88, 1032 290.12Q1083.54 269.65, 1104 321.19Q1129.64 274.84, 1176 300.48Q1192.83 245.31, 1248 262.13Q1293.4 235.53, 1320 280.93Q1411.21 252.14, 1440 343.36Q1482.03 265.39, 1560 307.42z" fill="rgba(173, 161, 196, 1)"></path>
        <path d="M1488 560L0 560 L0 546.61Q32.7 507.31, 72 540.01Q142.58 538.59, 144 609.17Q153.92 547.09, 216 557Q226.68 447.68, 336 458.36Q403.76 406.13, 456 473.89Q563.57 461.46, 576 569.03Q602.05 523.08, 648 549.12Q687.13 468.25, 768 507.37Q782.16 449.53, 840 463.69Q887.11 390.8, 960 437.91Q989.35 395.25, 1032 424.6Q1083.22 403.83, 1104 455.05Q1209.94 441, 1224 546.94Q1232 482.94, 1296 490.93Q1320.2 443.13, 1368 467.33Q1445.98 425.31, 1488 503.29z" fill="rgba(255, 255, 255, 1)"></path>
    </g>
    <defs>
        <mask id="SvgjsMask1038">
            <rect width="1440" height="560" fill="#ffffff"></rect>
        </mask>
    </defs>
</svg>