<svg xmlns="http://www.w3.org/2000/svg" version="1.1" xmlns:xlink="http://www.w3.org/1999/xlink" xmlns:svgjs="http://svgjs.com/svgjs" width="1440" height="560" preserveAspectRatio="none" viewBox="0 0 1440 560">
    <g mask="url(&quot;#SvgjsMask1042&quot;)" fill="none">
        <rect width="1440" height="560" x="0" y="0" fill="rgba(128, 222, 234, 1)"></rect>
        <path d="M1512 560L0 560 L0 402.53Q63.68 394.21, 72 457.89Q72.94 386.83, 144 387.77Q132.55 304.31, 216 292.86Q268.18 225.04, 336 277.22Q385.04 254.26, 408 303.31Q497.44 272.75, 528 362.19Q556.33 318.52, 600 346.85Q596.09 270.94, 672 267.03Q765.37 288.4, 744 381.77Q833.42 351.19, 864 440.62Q883.8 388.43, 936 408.23Q990.23 342.46, 1056 396.69Q1043.39 312.08, 1128 299.47Q1166.87 218.34, 1248 257.21Q1296.03 233.24, 1320 281.26Q1417.18 306.44, 1392 403.63Q1465.84 357.47, 1512 431.3z" fill="rgba(107, 186, 196, 1)"></path>
        <path d="M1560 560L0 560 L0 557.07Q31.04 468.11, 120 499.15Q168.38 475.53, 192 523.92Q288.19 500.11, 312 596.29Q351.25 515.53, 432 554.78Q479.84 482.62, 552 530.45Q575.6 482.05, 624 505.64Q702.81 464.45, 744 543.26Q796.13 475.38, 864 527.51Q883.88 427.39, 984 447.27Q1027.74 371, 1104 414.74Q1188.23 378.97, 1224 463.2Q1301.9 469.11, 1296 547.01Q1266.37 445.38, 1368 415.74Q1505.63 481.37, 1440 619Q1418.44 477.44, 1560 455.88z" fill="rgba(255, 255, 255, 1)"></path>
    </g>
    <defs>
        <mask id="SvgjsMask1042">
            <rect width="1440" height="560" fill="#ffffff"></rect>
        </mask>
    </defs>
</svg>