<svg xmlns="http://www.w3.org/2000/svg" version="1.1" xmlns:xlink="http://www.w3.org/1999/xlink" xmlns:svgjs="http://svgjs.com/svgjs" width="1440" height="560" preserveAspectRatio="none" viewBox="0 0 1440 560">
    <g mask="url(&quot;#SvgjsMask1007&quot;)" fill="none">
        <rect width="1440" height="560" x="0" y="0" fill="rgba(188, 170, 164, 1)"></rect>
        <path d="M1536 560L0 560 L0 340.41Q99.16 367.57, 72 466.72Q65.71 388.43, 144 382.14Q185.01 303.15, 264 344.17Q312 272.18, 384 320.18Q476.21 292.39, 504 384.6Q544.04 304.64, 624 344.68Q635.52 284.2, 696 295.72Q767.62 247.34, 816 318.95Q881 311.95, 888 376.95Q937.32 354.27, 960 403.59Q1015.78 387.37, 1032 443.14Q1032.11 371.25, 1104 371.35Q1132.17 279.52, 1224 307.7Q1274.47 286.17, 1296 336.64Q1370.44 291.08, 1416 365.52Q1523.43 352.95, 1536 460.38z" fill="rgba(145, 131, 127, 1)"></path>
        <path d="M1488 560L0 560 L0 426.93Q127.53 482.46, 72 609.98Q39.18 505.16, 144 472.34Q187.88 396.22, 264 440.1Q305.75 409.86, 336 451.61Q409.78 405.39, 456 479.18Q566.73 469.91, 576 580.65Q579.35 464, 696 467.35Q725.13 424.48, 768 453.6Q795.25 408.86, 840 436.11Q933.93 410.04, 960 503.97Q1038.84 510.81, 1032 589.65Q1012.68 498.33, 1104 479Q1149.28 404.27, 1224 449.55Q1253.04 406.59, 1296 435.63Q1385.98 405.61, 1416 495.59Q1459.32 466.9, 1488 510.22z" fill="rgba(255, 255, 255, 1)"></path>
    </g>
    <defs>
        <mask id="SvgjsMask1007">
            <rect width="1440" height="560" fill="#ffffff"></rect>
        </mask>
    </defs>
</svg>