<svg xmlns="http://www.w3.org/2000/svg" version="1.1" xmlns:xlink="http://www.w3.org/1999/xlink" xmlns:svgjs="http://svgjs.com/svgjs" width="1440" height="560" preserveAspectRatio="none" viewBox="0 0 1440 560">
    <g mask="url(&quot;#SvgjsMask1054&quot;)" fill="none">
        <rect width="1440" height="560" x="0" y="0" fill="rgba(224, 224, 224, 1)"></rect>
        <path d="M1464 560L0 560 L0 403Q51.05 334.05, 120 385.1Q142.88 335.99, 192 358.87Q221.1 315.97, 264 345.07Q292.38 301.45, 336 329.83Q385.54 307.37, 408 356.9Q504.47 333.37, 528 429.83Q596.59 378.41, 648 447Q689.62 368.62, 768 410.24Q779.7 349.94, 840 361.64Q885.75 335.39, 912 381.15Q949.19 298.34, 1032 335.53Q1070.7 254.24, 1152 292.94Q1217.68 238.62, 1272 304.3Q1381.95 294.25, 1392 404.21Q1413.21 353.42, 1464 374.63z" fill="rgba(184, 184, 184, 1)"></path>
        <path d="M1488 560L0 560 L0 524.9Q18 470.89, 72 488.89Q144.7 441.59, 192 514.3Q195.59 445.88, 264 449.47Q287.42 400.89, 336 424.32Q392.49 408.81, 408 465.3Q532.4 469.71, 528 594.11Q500.38 446.49, 648 418.86Q728.81 379.67, 768 460.48Q878.08 498.56, 840 608.63Q812.87 509.5, 912 482.36Q934.54 384.9, 1032 407.45Q1156.5 411.95, 1152 536.45Q1220.87 485.32, 1272 554.18Q1317.53 527.7, 1344 573.23Q1397.49 554.72, 1416 608.21Q1424.68 544.89, 1488 553.58z" fill="rgba(255, 255, 255, 1)"></path>
    </g>
    <defs>
        <mask id="SvgjsMask1054">
            <rect width="1440" height="560" fill="#ffffff"></rect>
        </mask>
    </defs>
</svg>