<svg xmlns="http://www.w3.org/2000/svg" version="1.1" xmlns:xlink="http://www.w3.org/1999/xlink" xmlns:svgjs="http://svgjs.com/svgjs" width="1440" height="560" preserveAspectRatio="none" viewBox="0 0 1440 560">
    <g mask="url(&quot;#SvgjsMask1005&quot;)" fill="none">
        <rect width="1440" height="560" x="0" y="0" fill="rgba(46, 24, 171, 1)"></rect>
        <path d="M1512 560L0 560 L0 346.94Q36.59 263.53, 120 300.13Q144.74 252.87, 192 277.61Q247.38 261, 264 316.38Q333.58 265.96, 384 335.54Q389.23 268.77, 456 274Q483.18 229.18, 528 256.35Q589.68 246.03, 600 307.71Q710.68 346.39, 672 457.07Q640.47 305.54, 792 274.01Q939.01 301.02, 912 448.04Q905.51 369.55, 984 363.06Q969.55 276.61, 1056 262.15Q1171.66 305.81, 1128 421.47Q1111.75 333.22, 1200 316.97Q1246.39 243.37, 1320 289.76Q1370.22 219.98, 1440 270.2Q1470.52 228.72, 1512 259.23z" fill="rgba(34, 18, 123, 1)"></path>
        <path d="M1464 560L0 560 L0 561.26Q-6.23 483.03, 72 476.81Q84.04 416.85, 144 428.88Q210.88 375.76, 264 442.64Q306.12 364.76, 384 406.88Q480.31 383.19, 504 479.51Q626.57 482.08, 624 604.64Q666.74 575.38, 696 618.12Q722.8 524.92, 816 551.72Q833.36 449.08, 936 466.44Q956.03 414.47, 1008 434.49Q1033.07 387.56, 1080 412.62Q1168.06 380.68, 1200 468.74Q1282.19 430.94, 1320 513.13Q1387.6 508.73, 1392 576.32Q1404.13 516.45, 1464 528.57z" fill="rgba(255, 255, 255, 1)"></path>
    </g>
    <defs>
        <mask id="SvgjsMask1005">
            <rect width="1440" height="560" fill="#ffffff"></rect>
        </mask>
    </defs>
</svg>