<svg xmlns="http://www.w3.org/2000/svg" version="1.1" xmlns:xlink="http://www.w3.org/1999/xlink" xmlns:svgjs="http://svgjs.com/svgjs" width="1440" height="560" preserveAspectRatio="none" viewBox="0 0 1440 560">
    <g mask="url(&quot;#SvgjsMask1049&quot;)" fill="none">
        <rect width="1440" height="560" x="0" y="0" fill="rgba(144, 164, 174, 1)"></rect>
        <path d="M1512 560L0 560 L0 410.67Q-9.54 329.13, 72 319.6Q102.07 277.68, 144 307.75Q195.78 239.53, 264 291.32Q304.94 212.26, 384 253.2Q476.62 225.82, 504 318.44Q555.78 298.23, 576 350.01Q602.68 256.69, 696 283.36Q721 236.36, 768 261.36Q809.87 231.23, 840 273.09Q977.15 290.25, 960 427.4Q1028.82 376.22, 1080 445.04Q1084.38 377.43, 1152 381.81Q1191.59 301.4, 1272 340.99Q1342.84 291.83, 1392 362.66Q1411.85 262.51, 1512 282.36z" fill="rgba(115, 132, 141, 1)"></path>
        <path d="M1488 560L0 560 L0 479.33Q9.49 416.82, 72 426.31Q122.79 357.1, 192 407.89Q270.36 366.25, 312 444.6Q416.12 428.72, 432 532.83Q442.84 471.68, 504 482.52Q546.21 452.73, 576 494.94Q649.16 496.11, 648 569.27Q722.04 523.31, 768 597.35Q768.81 526.16, 840 526.98Q832.04 447.02, 912 439.07Q938.58 393.65, 984 420.23Q1058.78 375.01, 1104 449.79Q1134.2 407.99, 1176 438.19Q1250.14 392.33, 1296 466.47Q1356.08 454.55, 1368 514.63Q1438.22 464.86, 1488 535.08z" fill="rgba(255, 255, 255, 1)"></path>
    </g>
    <defs>
        <mask id="SvgjsMask1049">
            <rect width="1440" height="560" fill="#ffffff"></rect>
        </mask>
    </defs>
</svg>