<svg xmlns="http://www.w3.org/2000/svg" version="1.1" xmlns:xlink="http://www.w3.org/1999/xlink" xmlns:svgjs="http://svgjs.com/svgjs" width="1440" height="560" preserveAspectRatio="none" viewBox="0 0 1440 560">
    <g mask="url(&quot;#SvgjsMask1007&quot;)" fill="none">
        <rect width="1440" height="560" x="0" y="0" fill="rgba(37, 47, 76, 1)"></rect>
        <path d="M -769.7238104502858,264 C -673.72,300 -481.72,451.2 -289.7238104502857,444 C -97.72,436.8 -1.72,250.8 190.27618954971427,228 C 382.28,205.2 478.28,333.2 670.2761895497142,330 C 862.28,326.8 996.33,200.2 1150.2761895497142,212 C 1304.22,223.8 1382.06,353.6 1440,389" stroke="rgba(255, 255, 255, 0.16)" stroke-width="2"></path>
        <path d="M -580.8098928240693,495 C -484.81,443 -292.81,248.2 -100.80989282406931,235 C 91.19,221.8 187.19,447 379.1901071759307,429 C 571.19,411 667.19,135.2 859.1901071759307,145 C 1051.19,154.8 1223.03,478.2 1339.1901071759307,478 C 1455.35,477.8 1419.84,210.8 1440,144" stroke="rgba(255, 255, 255, 0.16)" stroke-width="2"></path>
        <path d="M -219.80990278045198,436 C -123.81,381 68.19,162.6 260.190097219548,161 C 452.19,159.4 548.19,435.4 740.1900972195481,428 C 932.19,420.6 1028.19,131.8 1220.190097219548,124 C 1412.19,116.2 1656.23,400.8 1700.190097219548,389 C 1744.15,377.2 1492.04,129.8 1440,65" stroke="rgba(255, 255, 255, 0.16)" stroke-width="2"></path>
        <path d="M -313.7447568177146,415 C -217.74,344.8 -25.74,74.2 166.25524318228545,64 C 358.26,53.8 454.26,341 646.2552431822854,364 C 838.26,387 934.26,190.4 1126.2552431822855,179 C 1318.26,167.6 1543.51,303 1606.2552431822855,307 C 1669,311 1473.25,220.6 1440,199" stroke="rgba(255, 255, 255, 0.16)" stroke-width="2"></path>
    </g>
    <defs>
        <mask id="SvgjsMask1007">
            <rect width="1440" height="560" fill="#ffffff"></rect>
        </mask>
    </defs>
</svg>