<svg xmlns="http://www.w3.org/2000/svg" version="1.1" xmlns:xlink="http://www.w3.org/1999/xlink" xmlns:svgjs="http://svgjs.com/svgjs" width="1440" height="560" preserveAspectRatio="none" viewBox="0 0 1440 560">
    <g mask="url(&quot;#SvgjsMask1008&quot;)" fill="none">
        <rect width="1440" height="560" x="0" y="0" fill="rgba(36, 49, 61, 1)"></rect>
        <path d="M -245.26062407068315,219 C -187.66,262.8 -72.46,454.4 42.739375929316836,438 C 157.94,421.6 215.54,139.2 330.73937592931685,137 C 445.94,134.8 503.54,411.2 618.7393759293168,427 C 733.94,442.8 791.54,243.4 906.7393759293168,216 C 1021.94,188.6 1079.54,306.4 1194.7393759293168,290 C 1309.94,273.6 1433.69,104.6 1482.7393759293168,134 C 1531.79,163.4 1448.55,376.4 1440,437" stroke="rgba(63, 84, 104, 0.58)" stroke-width="2"></path>
        <path d="M -286.09435311421896,491 C -228.49,439 -113.29,254.6 1.9056468857810316,231 C 117.11,207.4 174.71,382.6 289.90564688578104,373 C 405.11,363.4 462.71,171.8 577.905646885781,183 C 693.11,194.2 750.71,449.8 865.905646885781,429 C 981.11,408.2 1038.71,102 1153.905646885781,79 C 1269.11,56 1384.69,274 1441.905646885781,314 C 1499.12,354 1440.38,286 1440,279" stroke="rgba(63, 84, 104, 0.58)" stroke-width="2"></path>
        <path d="M -186.20523612727368,164 C -128.61,226 -13.41,471.4 101.79476387272634,474 C 216.99,476.6 274.59,197.8 389.7947638727263,177 C 504.99,156.2 562.59,352.6 677.7947638727263,370 C 792.99,387.4 850.59,240.2 965.7947638727263,264 C 1080.99,287.8 1138.59,487.2 1253.7947638727264,489 C 1368.99,490.8 1504.55,307.6 1541.7947638727264,273 C 1579.04,238.4 1460.36,307.4 1440,316" stroke="rgba(63, 84, 104, 0.58)" stroke-width="2"></path>
        <path d="M -228.4091401511712,468 C -170.81,418.2 -55.61,247.4 59.59085984882882,219 C 174.79,190.6 232.39,329 347.5908598488288,326 C 462.79,323 520.39,195.6 635.5908598488288,204 C 750.79,212.4 808.39,364.4 923.5908598488288,368 C 1038.79,371.6 1096.39,200.4 1211.5908598488288,222 C 1326.79,243.6 1453.91,512.4 1499.5908598488288,476 C 1545.27,439.6 1451.92,127.2 1440,40" stroke="rgba(63, 84, 104, 0.58)" stroke-width="2"></path>
        <path d="M -315.7092442674299,229 C -258.11,239.6 -142.91,319.6 -27.70924426742986,282 C 87.49,244.4 145.09,10.4 260.2907557325701,41 C 375.49,71.6 433.09,403.8 548.2907557325701,435 C 663.49,466.2 721.09,187.2 836.2907557325701,197 C 951.49,206.8 1009.09,502.2 1124.2907557325702,484 C 1239.49,465.8 1349.15,124.4 1412.2907557325702,106 C 1475.43,87.6 1434.46,334.8 1440,392" stroke="rgba(63, 84, 104, 0.58)" stroke-width="2"></path>
        <path d="M -114.82794386660092,213 C -57.23,267.8 57.97,506 173.17205613339908,487 C 288.37,468 345.97,122 461.1720561333991,118 C 576.37,114 633.97,458.6 749.1720561333991,467 C 864.37,475.4 921.97,156.8 1037.172056133399,160 C 1152.37,163.2 1209.97,498 1325.172056133399,483 C 1440.37,468 1590.21,91.8 1613.172056133399,85 C 1636.14,78.2 1474.63,376.2 1440,449" stroke="rgba(63, 84, 104, 0.58)" stroke-width="2"></path>
    </g>
    <defs>
        <mask id="SvgjsMask1008">
            <rect width="1440" height="560" fill="#ffffff"></rect>
        </mask>
    </defs>
</svg>