<svg xmlns="http://www.w3.org/2000/svg" version="1.1" xmlns:xlink="http://www.w3.org/1999/xlink" xmlns:svgjs="http://svgjs.com/svgjs" width="1440" height="560" preserveAspectRatio="none" viewBox="0 0 1440 560">
    <g mask="url(&quot;#SvgjsMask1001&quot;)" fill="none">
        <rect width="1440" height="560" x="0" y="0" fill="rgba(0, 0, 0, 1)"></rect>
        <path d="M280 55.15C259.6 55.15 252 96.12 249.23 140C244.9 208.54 255.59 210.31 265.8 280C270.97 315.31 265.17 350 280 350C298.06 350 320.86 320.22 331.58 280C348.86 215.22 350.94 205.14 336 140C325.15 92.72 302.98 55.15 280 55.15" stroke="rgba(46, 68, 88, 0.82)" stroke-width="2"></path>
        <path d="M375.79 0C399.79 4 398.14 23.33 420 23.33C440.25 23.33 437.84 3.69 460 0C507.84 -7.97 510 0 560 0C630 0 630 0 700 0C770 0 770 0 840 0C905.63 0 945.74 -33.6 971.25 0C998.89 36.4 942.9 76.72 946.3 140C947.27 158.09 963.29 162.75 980 162.75C996.11 162.75 1011.66 157.5 1011.93 140C1012.93 76.13 954.99 35.7 982.55 0C1009.03 -34.3 1051.28 0 1120 0C1170.4 0 1195.67 -29.13 1220.8 0C1256.06 40.87 1224.67 72.66 1240.78 140C1244.27 154.61 1251.03 163.9 1260 163.9C1268.3 163.9 1271.28 153.49 1275.31 140C1295.78 71.54 1270.8 42.89 1309 0C1333.14 -27.11 1354.5 0 1400 0C1470 0 1505 -35 1540 0C1575 35 1540 70 1540 140C1540 210 1540 210 1540 280C1540 350 1540 350 1540 420C1540 490 1570.78 520.78 1540 560C1515.85 590.78 1474.84 577.38 1430.15 560C1404.84 550.16 1416.2 505.56 1400 505.56C1382.97 505.56 1390.78 549.47 1363.7 560C1320.78 576.69 1311.85 560 1260 560C1190 560 1190 560 1120 560C1050 560 1050 560 980 560C910 560 910 560 840 560C770 560 770 560 700 560C630 560 630 560 560 560C490 560 490 560 420 560C365.91 560 355.18 578.07 311.82 560C285.18 548.9 291.29 501.67 280 501.67C269.91 501.67 291.11 550.81 269.06 560C221.11 579.98 204.53 560 140 560C70 560 35.4 594.6 0 560C-34.6 526.19 -2.78 489.94 0 423.18C0.13 419.94 5.83 421.39 5.83 420C5.83 418.7 0.13 420.84 0 417.81C-2.79 350.84 0 348.9 0 280C0 210 0 210 0 140C0 70 -35 35 0 0C35 -35 70 0 140 0C210 0 210 0 280 0C327.89 0 329.79 -7.67 375.79 0" stroke="rgba(46, 68, 88, 0.82)" stroke-width="2"></path>
        <path d="M560 58.33C525.11 58.33 520.02 94.36 502.35 140C477.11 205.2 456.83 226.06 474.19 280C485.65 315.62 514.68 308.58 560 319.12C627.59 334.83 631.89 317.25 700 332.5C771.89 348.6 794.25 397.32 840 381.82C871.72 371.07 854.93 329.27 854.93 280C854.93 266.93 851.05 264.87 840 257.14C773.59 210.68 767.96 217.1 700 171.61C680.46 158.53 683.32 154.82 665 140C613.32 98.18 606.43 58.33 560 58.33" stroke="rgba(46, 68, 88, 0.82)" stroke-width="2"></path>
        <path d="M1120 263.2C1113 263.2 1110.99 270.22 1108.49 280C1090.99 348.62 1075.99 354.68 1080 420C1081.74 448.31 1092.43 458.82 1120 467.27C1182.43 486.4 1195.33 489.31 1260 475.15C1303.24 465.68 1335.83 448.45 1335.83 420C1335.83 390.54 1299.4 387.64 1260 359.33C1201.98 317.64 1199.92 320.46 1141 280C1129.92 272.39 1129.25 263.2 1120 263.2" stroke="rgba(46, 68, 88, 0.82)" stroke-width="2"></path>
        <path d="M420 373.33C395.28 373.33 355.38 398.46 355.38 420C355.38 440.06 393.95 456.52 420 456.52C433.89 456.52 435.27 438.56 435.27 420C435.27 396.97 435.23 373.33 420 373.33" stroke="rgba(46, 68, 88, 0.82)" stroke-width="2"></path>
        <path d="M60 0C101.58 10.73 109 7.35 140 36.13C184.39 77.35 193.02 82.33 210.77 140C230.55 204.27 232.01 214.71 215.07 280C196.62 351.12 194.48 391.76 140 412.82C86.95 433.33 44.88 405.71 0 363.13C-25.12 339.3 0 321.57 0 280C0 210 0 210 0 140C0 70 -21 49 0 0C9 -21 31.58 -7.33 60 0" stroke="rgba(46, 68, 88, 0.82)" stroke-width="2"></path>
        <path d="M406 140C406 129.3 413.04 120.56 420 120.56C426.91 120.56 433.73 129.33 433.73 140C433.73 158.49 426.92 178.89 420 178.89C413.06 178.89 406 158.46 406 140" stroke="rgba(46, 68, 88, 0.82)" stroke-width="2"></path>
        <path d="M700 68C657.92 31.7 611.85 18.98 611.85 0C611.85 -15.02 655.92 0 700 0C744.08 0 750.27 -14.57 788.15 0C820.27 12.36 819.52 23.14 840 53.85C866.19 93.14 881.48 99.93 881.48 140C881.48 165.86 863.35 185.71 840 185.71C809.67 185.71 804.71 165.72 774.12 140C734.71 106.86 739.06 101.7 700 68" stroke="rgba(46, 68, 88, 0.82)" stroke-width="2"></path>
        <path d="M1073.33 140C1048.66 75.44 1030.8 46.12 1046.18 0C1054.14 -23.88 1083.09 0 1120 0C1147.07 0 1166.86 -19.52 1174.13 0C1192.94 50.48 1189.83 76.95 1172.16 140C1162.76 173.55 1145.34 193.2 1120 193.2C1095.93 193.2 1085.57 172.04 1073.33 140" stroke="rgba(46, 68, 88, 0.82)" stroke-width="2"></path>
        <path d="M1330 140C1358.31 74.25 1338.77 57.12 1367.33 0C1373.77 -12.88 1383.66 0 1400 0C1470 0 1505 -35 1540 0C1575 35 1540 70 1540 140C1540 185 1562.3 198.78 1540 230C1512.3 268.78 1440 250.38 1440 280C1440 313.22 1506.95 309.41 1540 355.68C1556.95 379.41 1540 387.84 1540 420C1540 490 1560 510 1540 560C1532 580 1499.9 578.71 1484 560C1440.4 508.71 1453.71 489.39 1421 420C1411.71 400.3 1417.09 394.45 1400 381.82C1336.59 334.95 1329.48 342.25 1260 301C1243.73 291.34 1228.5 291.96 1228.5 280C1228.5 266.1 1247.15 267 1260 249.27C1297.9 197 1304.64 198.89 1330 140" stroke="rgba(46, 68, 88, 0.82)" stroke-width="2"></path>
        <path d="M901.6 280C921.17 233.74 940.55 206.5 980 206.5C1020.03 206.5 1047.15 233.5 1060.55 280C1077.92 340.25 1025.56 357.43 1041.54 420C1055.28 473.79 1069.42 487.68 1120 512.73C1178.65 541.77 1194.07 510.76 1260 528.18C1283.52 534.39 1298.89 551.03 1298.89 560C1298.89 566.94 1279.45 560 1260 560C1190 560 1190 560 1120 560C1050 560 1050 560 980 560C910 560 910 560 840 560C770 560 770 560 700 560C630 560 630 560 560 560C530 560 509.16 581 500 560C478.62 511 479.69 480.66 498.91 420C509.69 385.96 524.02 376.46 560 370.59C624.56 360.06 632.85 370.33 700 387.19C731.23 395.03 728.19 403.93 756.76 420C798.19 443.32 801.18 465.97 840 465.97C867.64 465.97 879.67 450.23 889.68 420C910.47 357.25 876.01 340.49 901.6 280" stroke="rgba(46, 68, 88, 0.82)" stroke-width="2"></path>
        <path d="M0 502.73C51.45 454.14 85.18 413.14 140 427.78C192.37 441.77 214.38 515.64 214.38 560C214.38 581.75 177.19 560 140 560C70 560 49.68 580.32 0 560C-20.32 551.69 -18.55 520.25 0 502.73" stroke="rgba(46, 68, 88, 0.82)" stroke-width="2"></path>
        <path d="M0 52C43.65 37.22 78.18 61.01 140 92.58C164.34 105.01 168.77 112.79 172.31 140C180.95 206.5 176.29 212.34 164.35 280C160.14 303.88 161.37 319.38 140 323.08C79.2 333.6 58.23 326.36 0 308.44C-11.77 304.82 0 294.22 0 280C0 210 0 210 0 140C0 96 -26.35 60.93 0 52" stroke="rgba(46, 68, 88, 0.82)" stroke-width="2"></path>
        <path d="M1120 56C1115.57 56 1109.82 23.75 1109.82 0C1109.82 -4.25 1114.91 0 1120 0C1123.74 0 1127.47 -3.27 1127.47 0C1127.47 24.73 1124.4 56 1120 56" stroke="rgba(46, 68, 88, 0.82)" stroke-width="2"></path>
        <path d="M1384.69 140C1384.69 113.1 1382.46 106.37 1400 85.56C1441.45 36.37 1447.95 33.44 1502.67 0C1517.95 -9.34 1536.07 -14.74 1540 0C1554.74 55.26 1540 70 1540 140C1540 153.75 1551.45 164.16 1540 167.5C1481.45 184.58 1459.28 191.33 1400 180.83C1381.62 177.58 1384.69 160.74 1384.69 140" stroke="rgba(46, 68, 88, 0.82)" stroke-width="2"></path>
        <path d="M948.27 280C952.28 259.88 964.03 250.25 980 250.25C996.2 250.25 1009.84 259.69 1012.6 280C1021.38 344.57 1012.99 350.85 1003.08 420C996.69 464.6 993.98 507.5 980 507.5C965.5 507.5 952.5 465.64 946.13 420C936.63 351.89 935.35 344.76 948.27 280" stroke="rgba(46, 68, 88, 0.82)" stroke-width="2"></path>
        <path d="M61.25 560C61.25 550.86 106.43 525 140 525C155.65 525 159.69 548.26 159.69 560C159.69 565.76 149.85 560 140 560C100.63 560 61.25 568.36 61.25 560" stroke="rgba(46, 68, 88, 0.82)" stroke-width="2"></path>
        <path d="M746.67 560C746.67 549.08 793.2 518.21 840 518.21C888.14 518.21 936.55 549.1 936.55 560C936.55 570 888.28 560 840 560C793.34 560 746.67 569.97 746.67 560" stroke="rgba(46, 68, 88, 0.82)" stroke-width="2"></path>
        <path d="M1106 560C1106 559.54 1113.01 558.18 1120 558.18C1126.37 558.18 1132.73 559.54 1132.73 560C1132.73 560.45 1126.36 560 1120 560C1113 560 1106 560.45 1106 560" stroke="rgba(46, 68, 88, 0.82)" stroke-width="2"></path>
        <path d="M1537.85 560C1537.85 553.16 1539.46 544.44 1540 544.44C1540.53 544.44 1540.94 553.16 1540 560C1539.87 560.94 1537.85 560.94 1537.85 560" stroke="rgba(46, 68, 88, 0.82)" stroke-width="2"></path>
    </g>
    <defs>
        <mask id="SvgjsMask1001">
            <rect width="1440" height="560" fill="#ffffff"></rect>
        </mask>
    </defs>
</svg>