<svg xmlns="http://www.w3.org/2000/svg" version="1.1" xmlns:xlink="http://www.w3.org/1999/xlink" xmlns:svgjs="http://svgjs.com/svgjs" width="1440" height="560" preserveAspectRatio="none" viewBox="0 0 1440 560">
    <g mask="url(&quot;#SvgjsMask1021&quot;)" fill="none">
        <rect width="1440" height="560" x="0" y="0" fill="rgba(86, 119, 149, 1)"></rect>
        <path d="M0,530.878C112.485,556.876,243.909,592.996,339.324,527.998C434.83,462.937,440.569,325.667,466.54,213.062C488.089,119.632,487.791,26.694,476.917,-68.57C465.733,-166.553,454.79,-265.135,402.418,-348.698C344.518,-441.08,263.989,-517.358,165.863,-564.877C56.06,-618.051,-69.006,-668.052,-186.066,-633.682C-303.126,-599.311,-365.899,-478.478,-444.935,-385.538C-523.192,-293.515,-622.339,-211.342,-645.967,-92.876C-670.075,27.995,-651.958,166.625,-574.128,262.195C-499.472,353.868,-358.638,341.32,-251.558,391.432C-162.927,432.91,-95.343,508.842,0,530.878" fill="#48647d"></path>
        <path d="M1440 959.23C1521.022 968.688 1611.035 976.918 1678.0140000000001 930.358 1744.5720000000001 884.0899999999999 1748.187 789.667 1786.606 718.29 1828.507 640.444 1909.622 580.137 1914.049 491.842 1918.705 398.96799999999996 1869.2069999999999 311.068 1810.644 238.83499999999998 1750.857 165.091 1675.004 91.90199999999999 1580.73 80.71699999999998 1489.07 69.84199999999998 1414.951 148.247 1328.915 181.67899999999997 1251.963 211.58100000000002 1149.13 199.288 1101.6979999999999 266.86 1054.007 334.8 1094.718 427.863 1097.88 510.811 1100.435 577.822 1095.018 644.012 1118.471 706.837 1143.188 773.049 1179.6109999999999 835.03 1235.204 878.669 1294.1 924.9010000000001 1365.631 950.549 1440 959.23" fill="#698aa8"></path>
    </g>
    <defs>
        <mask id="SvgjsMask1021">
            <rect width="1440" height="560" fill="#ffffff"></rect>
        </mask>
    </defs>
</svg>