<svg xmlns="http://www.w3.org/2000/svg" version="1.1" xmlns:xlink="http://www.w3.org/1999/xlink" xmlns:svgjs="http://svgjs.com/svgjs" width="1440" height="560" preserveAspectRatio="none" viewBox="0 0 1440 560">
    <g mask="url(&quot;#SvgjsMask1001&quot;)" fill="none">
        <rect width="1440" height="560" x="0" y="0" fill="rgba(22, 30, 37, 1)"></rect>
        <path d="M0,523.201C96.252,522.439,152.567,413.086,240.903,374.853C354.301,325.773,511.943,365.846,588.201,268.622C662.87,173.424,637.284,29.317,602.914,-86.686C571.007,-194.374,493.671,-282.123,404.708,-350.682C326.536,-410.925,225.456,-417.838,132.01,-449.586C33.553,-483.037,-55.426,-548.448,-159.227,-542.279C-275.713,-535.356,-403.523,-503.98,-477.076,-413.388C-550.304,-323.195,-544.94,-193.08,-536.842,-77.186C-529.87,22.593,-488.471,114.25,-434.329,198.352C-385.958,273.49,-314.927,325.164,-243.367,378.686C-166.253,436.362,-96.294,523.963,0,523.201" fill="#12181e"></path>
        <path d="M1440 1152.864C1548.83 1139.292 1614.161 1028.878 1691.102 950.722 1752.3029999999999 888.5550000000001 1794.786 816.822 1842.63 743.875 1900.063 656.307 2022.228 581.834 2000.19 479.457 1977.6970000000001 374.96500000000003 1832.211 358.02 1745.9769999999999 294.869 1681.971 247.997 1632.647 184.558 1558.603 156.07600000000002 1480.209 125.92000000000002 1397.093 122.94999999999999 1313.278 128.425 1209.713 135.19 1094.2 124.71199999999999 1014.8399999999999 191.59699999999998 933.152 260.444 888.319 374.877 894.301 481.54 900.008 583.307 1002.482 647.758 1045.6019999999999 740.115 1088.196 831.347 1075.583 946.015 1145.141 1018.81 1221.272 1098.483 1330.648 1166.501 1440 1152.864" fill="#1a242c"></path>
    </g>
    <defs>
        <mask id="SvgjsMask1001">
            <rect width="1440" height="560" fill="#ffffff"></rect>
        </mask>
    </defs>
</svg>