<svg xmlns="http://www.w3.org/2000/svg" version="1.1" xmlns:xlink="http://www.w3.org/1999/xlink" xmlns:svgjs="http://svgjs.com/svgjs" width="1440" height="560" preserveAspectRatio="none" viewBox="0 0 1440 560">
    <g mask="url(&quot;#SvgjsMask1032&quot;)" fill="none">
        <rect width="1440" height="560" x="0" y="0" fill="rgba(255, 255, 255, 1)"></rect>
        <path d="M -305.7673237069652,260 C -209.77,297.6 -17.77,467.8 174.23267629303479,448 C 366.23,428.2 462.23,168.4 654.2326762930347,161 C 846.23,153.6 942.23,425.4 1134.2326762930347,411 C 1326.23,396.6 1553.08,74 1614.2326762930347,89 C 1675.39,104 1474.85,406.6 1440,486" stroke="rgba(36, 49, 61, 0.45)" stroke-width="2"></path>
        <path d="M -395.960615177646,402 C -299.96,349.2 -107.96,146.4 84.03938482235402,138 C 276.04,129.6 372.04,366.8 564.039384822354,360 C 756.04,353.2 852.04,81.6 1044.0393848223541,104 C 1236.04,126.4 1444.85,452 1524.0393848223541,472 C 1603.23,492 1456.81,257.6 1440,204" stroke="rgba(36, 49, 61, 0.45)" stroke-width="2"></path>
        <path d="M -374.9439853714265,400 C -278.94,373.2 -86.94,260.8 105.0560146285735,266 C 297.06,271.2 393.06,436.6 585.0560146285735,426 C 777.06,415.4 873.06,217.6 1065.0560146285734,213 C 1257.06,208.4 1470.07,401.6 1545.0560146285734,403 C 1620.04,404.4 1461.01,256.6 1440,220" stroke="rgba(36, 49, 61, 0.45)" stroke-width="2"></path>
        <path d="M -140.85669062568178,493 C -44.86,435.4 147.14,209.4 339.1433093743182,205 C 531.14,200.6 627.14,486.6 819.1433093743183,471 C 1011.14,455.4 1107.14,143.8 1299.1433093743183,127 C 1491.14,110.2 1750.97,397.2 1779.1433093743183,387 C 1807.31,376.8 1507.83,138.2 1440,76" stroke="rgba(36, 49, 61, 0.45)" stroke-width="2"></path>
    </g>
    <defs>
        <mask id="SvgjsMask1032">
            <rect width="1440" height="560" fill="#ffffff"></rect>
        </mask>
    </defs>
</svg>