<svg xmlns="http://www.w3.org/2000/svg" version="1.1" xmlns:xlink="http://www.w3.org/1999/xlink" xmlns:svgjs="http://svgjs.com/svgjs" width="1440" height="560" preserveAspectRatio="none" viewBox="0 0 1440 560">
    <g mask="url(&quot;#SvgjsMask1031&quot;)" fill="none">
        <rect width="1440" height="560" x="0" y="0" fill="rgba(255, 255, 255, 1)"></rect>
        <path d="M -153.65004214348022,94 C -57.65,143.8 134.35,325 326.3499578565198,343 C 518.35,361 614.35,177.4 806.3499578565197,184 C 998.35,190.6 1094.35,390.6 1286.3499578565197,376 C 1478.35,361.4 1735.62,101.4 1766.3499578565197,111 C 1797.08,120.6 1505.27,361.4 1440,424" stroke="rgba(36, 49, 61, 0.45)" stroke-width="2"></path>
        <path d="M -562.0560420514092,288 C -466.06,262.8 -274.06,139 -82.05604205140921,162 C 109.94,185 205.94,412.4 397.94395794859076,403 C 589.94,393.6 685.94,114.4 877.9439579485908,115 C 1069.94,115.6 1245.53,396.6 1357.9439579485909,406 C 1470.36,415.4 1423.59,210.8 1440,162" stroke="rgba(36, 49, 61, 0.45)" stroke-width="2"></path>
        <path d="M -284.1161130550422,100 C -188.12,163.6 3.88,401.8 195.8838869449578,418 C 387.88,434.2 483.88,176.6 675.8838869449578,181 C 867.88,185.4 963.88,459.2 1155.8838869449578,440 C 1347.88,420.8 1579.06,90.4 1635.8838869449578,85 C 1692.71,79.6 1479.18,347.4 1440,413" stroke="rgba(36, 49, 61, 0.45)" stroke-width="2"></path>
        <path d="M -762.272347946796,298 C -666.27,254 -474.27,47.8 -282.272347946796,78 C -90.27,108.2 5.73,453.4 197.727652053204,449 C 389.73,444.6 485.73,83.2 677.727652053204,56 C 869.73,28.8 1005.27,274.2 1157.727652053204,313 C 1310.18,351.8 1383.55,262.6 1440,250" stroke="rgba(36, 49, 61, 0.45)" stroke-width="2"></path>
    </g>
    <defs>
        <mask id="SvgjsMask1031">
            <rect width="1440" height="560" fill="#ffffff"></rect>
        </mask>
    </defs>
</svg>