<svg xmlns="http://www.w3.org/2000/svg" version="1.1" xmlns:xlink="http://www.w3.org/1999/xlink" xmlns:svgjs="http://svgjs.com/svgjs" width="1440" height="560" preserveAspectRatio="none" viewBox="0 0 1440 560">
    <g mask="url(&quot;#SvgjsMask1000&quot;)" fill="none">
        <rect width="1440" height="560" x="0" y="0" fill="#0e2a47"></rect>
        <path d="M0,401.228C75.998,398.945,145.818,367.394,211.536,329.157C279.797,289.441,367.17,253.049,386.348,176.439C405.752,98.929,317.019,35.139,304.911,-43.84C292.985,-121.628,363.655,-211.328,317.165,-274.825C271.513,-337.177,173.704,-326.043,96.466,-328.534C33.388,-330.569,-25.276,-309.588,-84.5,-287.781C-139.891,-267.385,-194.232,-245.985,-237.313,-205.633C-283.803,-162.088,-320.292,-109.526,-339.613,-48.829C-361.401,19.618,-375.309,93.109,-354.271,161.79C-331.861,234.953,-283.26,299.267,-219.863,342.114C-155.687,385.488,-77.424,403.553,0,401.228" fill="#0b2239"></path>
        <path d="M1440 1274.789C1572.199 1271.909 1676.432 1172.475 1787.4850000000001 1100.6970000000001 1898.234 1029.115 2053.32 983.1610000000001 2088.024 855.942 2123.225 726.902 1986.045 616.074 1955.188 485.927 1928.252 372.31899999999996 1972.431 248.627 1919.373 144.62099999999998 1859.247 26.75999999999999 1772.973-109.14300000000003 1642.009-127.97900000000004 1508.968-147.11400000000003 1415.381 2.125 1291.518 54.317999999999984 1186.513 98.565 1058.685 80.55000000000001 971.9 154.389 879.645 232.882 831.841 350.621 804.556 468.637 775.562 594.044 760.994 728.626 811.794 846.892 863.067 966.26 975.275 1042.915 1082.647 1116.051 1192.599 1190.944 1306.997 1277.6860000000001 1440 1274.789" fill="#113255"></path>
    </g>
    <defs>
        <mask id="SvgjsMask1000">
            <rect width="1440" height="560" fill="#ffffff"></rect>
        </mask>
    </defs>
</svg>