<svg width="808" height="760" viewBox="0 0 808 760" fill="none" xmlns="http://www.w3.org/2000/svg">
<g clip-path="url(#clip0_3_49)">
<path fill-rule="evenodd" clip-rule="evenodd" d="M0.548036 543.317C0.736406 542.736 0.917011 542.14 1.09017 541.534C2.67653 542.853 4.55827 543.83 6.62126 544.347L387.999 738.535C394.889 742.044 406.06 742.044 412.95 738.535L794.715 544.149L801.524 547.616C808.414 551.125 808.414 556.813 801.524 560.321L415.975 756.634C409.085 760.142 397.914 760.142 391.024 756.634L9.03187 562.132C0.898774 557.991 -1.32394 549.096 0.548036 543.317Z" fill="#67657F"/>
<path fill-rule="evenodd" clip-rule="evenodd" d="M0.059742 318.324C0.059742 317.68 0.178282 317.011 0.395723 316.335C0.785561 318.327 2.47897 320.265 5.47595 321.791L221.463 431.767L392.033 344.916C398.923 341.408 410.094 341.408 416.985 344.916L586.546 431.253L801.524 321.791C804.891 320.077 806.613 317.841 806.689 315.595C806.812 316.146 806.876 316.717 806.876 317.3L807.825 542.417C807.83 543.626 807.682 544.801 807.398 545.921C808.433 548.737 806.811 551.755 802.533 553.934L416.984 750.246C410.094 753.755 398.923 753.755 392.033 750.246L10.6554 556.058C8.39743 555.492 6.35659 554.376 4.68251 552.861C2.78294 551.533 1.68749 549.999 1.39606 548.434C0.539043 546.619 0.059742 544.591 0.059742 542.453V318.324Z" fill="url(#paint0_linear_3_49)"/>
<rect width="473.007" height="473.007" rx="14" transform="matrix(0.867853 0.496822 -0.867853 0.496822 403.5 80.9517)" fill="url(#paint1_linear_3_49)"/>
<rect width="301.919" height="301.919" rx="14" transform="matrix(0.867853 0.496822 -0.867853 0.496822 403.274 154.952)" fill="url(#paint2_radial_3_49)"/>
<path fill-rule="evenodd" clip-rule="evenodd" d="M415.424 161.907C408.713 158.066 397.834 158.066 391.124 161.907L153.402 297.996C147.486 301.383 146.786 306.626 151.303 310.452C151.909 309.938 152.609 309.451 153.402 308.996L391.124 172.907C397.834 169.066 408.713 169.066 415.424 172.907L653.145 308.996C653.939 309.451 654.639 309.938 655.245 310.452C659.761 306.626 659.062 301.383 653.145 297.996L415.424 161.907Z" fill="#D4CEF3"/>
<g clip-path="url(#clip1_3_49)">
<path d="M318.485 79.9516L173.082 177.952L318.485 252.952" stroke="black" stroke-width="13" stroke-linecap="round"/>
<path d="M492.38 79.9516L637.783 177.952L492.38 252.952" stroke="black" stroke-width="13" stroke-linecap="round"/>
<g style="mix-blend-mode:darken">
<path d="M406.906 270.452L368.591 158.452H395.608H425.082C429.994 158.452 441.292 155.952 446.696 146.452C452.099 136.952 453.082 126.952 450.134 118.452C447.187 109.952 437.363 95.9516 423.117 95.9516H383.819H352.871L342.064 65.9516H395.608C415.749 65.9516 435.889 66.4516 448.17 73.9516C481.233 94.1441 480.099 130.452 480.099 130.452C480.099 130.452 480.49 137.879 474.696 152.952C468.901 168.025 447.187 184.931 434.415 184.931H406.906L419.187 218.952L438.345 270.452H422.134H406.906Z" stroke="black" stroke-width="11" stroke-linecap="round"/>
</g>
</g>
<path fill-rule="evenodd" clip-rule="evenodd" d="M502.625 202.917L500.605 180.033L520.513 189.234L538.471 176.554L538.534 176.549L540.553 199.414L540.66 199.463L522.636 212.182L502.67 202.946L502.724 202.908L502.625 202.917Z" fill="#B9B7DD"/>
<rect width="22.0127" height="22.0444" transform="matrix(0.907364 0.420167 -0.817277 0.576376 518.569 167.279)" fill="#F0EDFF"/>
<rect width="22.0485" height="23.0872" transform="matrix(0.817534 -0.576011 0.0888743 0.996043 520.535 189.244)" fill="#DAD6EF"/>
<rect width="22.0611" height="22.0013" transform="matrix(0.761276 0.648659 -0.942014 0.335127 217.765 83.4398)" fill="#D9D9D9"/>
<path d="M213.81 105.114L197.027 90.8235L220.795 66.7029L213.81 105.114Z" fill="#B9B7DD"/>
<path d="M213.765 105.086L234.488 97.7083L220.75 66.675L213.765 105.086Z" fill="#DAD6EF"/>
<path fill-rule="evenodd" clip-rule="evenodd" d="M276.85 128.966L276.989 129.012L291.643 145.335L313.093 140.839L306.044 162.656L305.962 162.628L306.074 162.754L284.569 167.268L269.801 150.818L269.851 150.808L269.8 150.791L276.85 128.966Z" fill="#B9B7DD"/>
<rect width="22.0797" height="21.9939" transform="matrix(0.668376 0.744157 -0.978284 0.206072 298.387 124.372)" fill="#F0EDFF"/>
<rect width="22.0547" height="23.1221" transform="matrix(0.978329 -0.205855 -0.307162 0.951658 291.568 145.298)" fill="#DAD6EF"/>
<rect width="23.1117" height="22.6972" transform="matrix(0.748256 0.675911 -0.930754 0.342265 621.325 91.7798)" fill="#D9D9D9"/>
<path d="M617.622 115.16L600.113 99.623L624.524 73.8956L617.622 115.16Z" fill="#B9B7DD"/>
<path d="M617.325 114.96L638.726 107.219L624.225 73.6956L617.325 114.96Z" fill="#DAD6EF"/>
<path fill-rule="evenodd" clip-rule="evenodd" d="M283.026 297.183L284.237 297.614L298.777 314.84L320.337 310.456L320.525 310.522L313.69 333.522L312.582 333.128L313.336 334.02L291.516 338.499L276.193 320.365L276.516 320.298L276.191 320.183L283.026 297.183Z" fill="#B9B7DD"/>
<rect width="23.273" height="22.6802" transform="matrix(0.655476 0.773334 -0.965069 0.203489 305.32 292.228)" fill="#F0EDFF"/>
<rect width="23.0876" height="24.98" transform="matrix(0.965368 -0.202166 -0.283348 0.959407 298.287 314.57)" fill="#DAD6EF"/>
<rect width="22.1379" height="22.1379" transform="matrix(0.941757 0.339994 -0.76783 0.638698 512.099 293)" fill="#D9D9D9"/>
<path d="M515.897 314.675L495.101 307.139L509.072 276.267L515.897 314.675Z" fill="#B9B7DD"/>
<path d="M515.897 314.675L532.843 300.545L509.072 276.267L515.897 314.675Z" fill="#DAD6EF"/>
<rect width="22.1379" height="22.1379" transform="matrix(0.941757 0.339994 -0.76783 0.638698 423.349 364)" fill="#D9D9D9"/>
<path d="M427.148 385.675L406.351 378.139L420.322 347.267L427.148 385.675Z" fill="#B9B7DD"/>
<path d="M427.148 385.675L444.094 371.545L420.322 347.267L427.148 385.675Z" fill="#DAD6EF"/>
<path fill-rule="evenodd" clip-rule="evenodd" d="M415.926 -138.131C409.207 -141.956 398.312 -141.956 391.593 -138.131L157.792 -5.03429L156.945 -5.03648C153.695 -5.04494 148.949 -0.822952 148.949 2.42685C148.949 30.457 148.793 92.315 148.635 154.809C148.486 213.91 148.336 273.58 148.315 305.746C148.312 309.642 151.542 312.762 155.436 312.627L155.974 312.608C156.193 312.748 156.42 312.885 156.656 313.019L391.666 446.791C398.386 450.616 409.281 450.616 416 446.791L651.011 313.019C651.767 312.588 652.438 312.128 653.025 311.644C653.361 311.583 653.693 311.525 654.006 311.472C655.251 311.26 656.302 310.356 657.058 309.344C657.846 308.291 658.066 307.095 658.066 306.196L658.623 1.77606C658.623 -0.364227 657.261 -2.26717 655.235 -2.95705L654.468 -3.21815C654.059 -3.35762 653.688 -3.59137 653.385 -3.90056C652.864 -4.43214 652.152 -4.73134 651.408 -4.73038L650.263 -4.72891L415.926 -138.131Z" fill="url(#paint3_linear_3_49)"/>
</g>
<defs>
<linearGradient id="paint0_linear_3_49" x1="0.0597341" y1="447.208" x2="794.268" y2="453.878" gradientUnits="userSpaceOnUse">
<stop offset="0.447117" stop-color="#E0DAFF"/>
<stop offset="0.506169" stop-color="#F4F2FD"/>
<stop offset="0.609375" stop-color="#EAE7FB"/>
</linearGradient>
<linearGradient id="paint1_linear_3_49" x1="71.7113" y1="-150.21" x2="309.54" y2="248.105" gradientUnits="userSpaceOnUse">
<stop stop-color="#FAF9FE"/>
<stop offset="1" stop-color="#E8E4FF"/>
</linearGradient>
<radialGradient id="paint2_radial_3_49" cx="0" cy="0" r="1" gradientUnits="userSpaceOnUse" gradientTransform="translate(151.071 150.848) rotate(81.5721) scale(183.422 156.829)">
<stop stop-color="#00C893" stop-opacity="0.27"/>
<stop offset="1" stop-color="#00C893"/>
</radialGradient>
<linearGradient id="paint3_linear_3_49" x1="403.495" y1="-241.404" x2="403.495" y2="449.66" gradientUnits="userSpaceOnUse">
<stop offset="0.223388" stop-color="white" stop-opacity="0.28"/>
<stop offset="0.576042" stop-color="#70E0C2" stop-opacity="0.43"/>
<stop offset="1" stop-color="#00C893"/>
</linearGradient>
<clipPath id="clip0_3_49">
<rect width="808" height="760" fill="white"/>
</clipPath>
<clipPath id="clip1_3_49">
<rect width="494.175" height="216" fill="white" transform="translate(156.38 59.9516)"/>
</clipPath>
</defs>
</svg>