<svg width="808" height="904" viewBox="0 0 808 904" fill="none" xmlns="http://www.w3.org/2000/svg">
<g clip-path="url(#clip0_3_49)">
<path fill-rule="evenodd" clip-rule="evenodd" d="M0.548032 684.317C0.736401 683.736 0.917007 683.14 1.09017 682.534C2.67653 683.853 4.55826 684.829 6.62125 685.347L387.999 879.535C394.889 883.044 406.06 883.044 412.95 879.535L794.715 685.149L801.524 688.616C808.414 692.125 808.414 697.813 801.524 701.321L415.975 897.634C409.085 901.142 397.914 901.142 391.024 897.634L9.03187 703.132C0.89877 698.991 -1.32395 690.096 0.548032 684.317Z" fill="#67657F"/>
<path fill-rule="evenodd" clip-rule="evenodd" d="M0.059742 459.324C0.059742 458.68 0.178282 458.011 0.395723 457.335C0.785561 459.327 2.47897 461.265 5.47595 462.791L221.463 572.767L392.033 485.916C398.923 482.408 410.094 482.408 416.985 485.916L586.546 572.253L801.524 462.791C804.891 461.077 806.613 458.841 806.689 456.595C806.812 457.146 806.876 457.717 806.876 458.3L807.825 683.417C807.83 684.626 807.682 685.801 807.398 686.921C808.433 689.737 806.811 692.755 802.533 694.934L416.984 891.246C410.094 894.755 398.923 894.755 392.033 891.246L10.6554 697.058C8.39743 696.492 6.35659 695.376 4.68251 693.861C2.78294 692.533 1.68749 690.999 1.39606 689.434C0.539043 687.619 0.059742 685.591 0.059742 683.453V459.324Z" fill="url(#paint0_linear_3_49)"/>
<rect width="473.007" height="473.007" rx="14" transform="matrix(0.867853 0.496822 -0.867853 0.496822 403.5 221.952)" fill="url(#paint1_linear_3_49)"/>
<rect width="301.919" height="301.919" rx="14" transform="matrix(0.867853 0.496822 -0.867853 0.496822 403.274 295.952)" fill="url(#paint2_radial_3_49)"/>
<path fill-rule="evenodd" clip-rule="evenodd" d="M415.424 302.907C408.713 299.066 397.834 299.066 391.124 302.907L153.402 438.996C147.486 442.383 146.786 447.626 151.303 451.452C151.909 450.938 152.609 450.451 153.402 449.996L391.124 313.907C397.834 310.066 408.713 310.066 415.424 313.907L653.145 449.996C653.939 450.451 654.639 450.938 655.245 451.452C659.761 447.626 659.062 442.383 653.145 438.996L415.424 302.907Z" fill="#D4CEF3"/>
<g clip-path="url(#clip1_3_49)">
<path d="M318.485 220.952L173.082 318.952L318.485 393.952" stroke="black" stroke-width="13" stroke-linecap="round"/>
<path d="M492.38 220.952L637.783 318.952L492.38 393.952" stroke="black" stroke-width="13" stroke-linecap="round"/>
<g style="mix-blend-mode:darken">
<path d="M406.906 411.452L368.591 299.452H395.608H425.082C429.994 299.452 441.292 296.952 446.696 287.452C452.099 277.952 453.082 267.952 450.134 259.452C447.187 250.952 437.363 236.952 423.117 236.952H383.819H352.871L342.064 206.952H395.608C415.749 206.952 435.889 207.452 448.17 214.952C481.233 235.144 480.099 271.452 480.099 271.452C480.099 271.452 480.49 278.879 474.696 293.952C468.901 309.025 447.187 325.931 434.415 325.931H406.906L419.187 359.952L438.345 411.452H422.134H406.906Z" stroke="black" stroke-width="11" stroke-linecap="round"/>
</g>
</g>
<path fill-rule="evenodd" clip-rule="evenodd" d="M500.605 337.221L501.7 337.036L520.375 345.84L536.224 331.21L538.943 330.751L540.555 355.645L538.716 355.955L540.66 356.926L522.494 373.136L502.67 363.23L504.317 361.761L502.217 362.115L500.605 337.221Z" fill="#B9B7DD"/>
<rect width="22.8046" height="23.5731" transform="matrix(0.871203 0.460648 -0.768778 0.662189 518.675 319.725)" fill="#F0EDFF"/>
<rect width="23.5465" height="27.098" transform="matrix(0.775008 -0.654724 0.0674808 0.997971 520.535 346.162)" fill="#DAD6EF"/>
<rect width="24.0302" height="22.6064" transform="matrix(0.707554 0.74698 -0.907594 0.346878 217.557 220)" fill="#D9D9D9"/>
<path d="M214.455 245.781L196.845 228.223L220.795 200.872L214.455 245.781Z" fill="#B9B7DD"/>
<path d="M213.765 244.967L234.951 237.192L220.105 200.059L213.765 244.967Z" fill="#DAD6EF"/>
<path fill-rule="evenodd" clip-rule="evenodd" d="M275.84 274.153L279.635 275.817L292.058 293.624L313.065 290.47L313.095 290.483L307.055 314.225L303.493 312.664L306.074 316.331L284.976 319.711L269.801 298.157L270.238 298.087L269.8 297.895L275.84 274.153Z" fill="#B9B7DD"/>
<rect width="24.5845" height="22.615" transform="matrix(0.613753 0.848313 -0.936764 0.180397 298.056 268.688)" fill="#F0EDFF"/>
<rect width="23.5443" height="28.0082" transform="matrix(0.936447 -0.181687 -0.23675 0.97458 291.096 292.456)" fill="#DAD6EF"/>
<rect width="25.3024" height="23.3566" transform="matrix(0.691901 0.77383 -0.895348 0.352875 621.111 229.92)" fill="#D9D9D9"/>
<path d="M618.288 257.731L599.926 238.642L624.524 209.494L618.288 257.731Z" fill="#B9B7DD"/>
<path d="M617.325 256.646L639.205 248.524L623.559 208.41L617.325 256.646Z" fill="#DAD6EF"/>
<path fill-rule="evenodd" clip-rule="evenodd" d="M282.018 474.242L286.91 476.557L299.201 495.245L320.315 492.36L320.525 492.46L314.698 517.467L310.074 515.279L313.336 520.191L291.931 523.386L276.193 499.684L276.89 499.58L276.191 499.249L282.018 474.242Z" fill="#B9B7DD"/>
<rect width="26.0291" height="23.3489" transform="matrix(0.599114 0.87637 -0.922889 0.175015 304.981 468.348)" fill="#F0EDFF"/>
<rect width="24.6865" height="30.3128" transform="matrix(0.922898 -0.17498 -0.217167 0.981077 297.792 493.692)" fill="#DAD6EF"/>
<rect width="22.1379" height="22.1379" transform="matrix(0.941757 0.339994 -0.76783 0.638698 512.099 434)" fill="#D9D9D9"/>
<path d="M515.897 455.675L495.101 448.139L509.072 417.267L515.897 455.675Z" fill="#B9B7DD"/>
<path d="M515.897 455.675L532.843 441.545L509.072 417.267L515.897 455.675Z" fill="#DAD6EF"/>
<rect width="22.1379" height="22.1379" transform="matrix(0.941757 0.339994 -0.76783 0.638698 423.349 505)" fill="#D9D9D9"/>
<path d="M427.148 526.675L406.351 519.139L420.322 488.267L427.148 526.675Z" fill="#B9B7DD"/>
<path d="M427.148 526.675L444.094 512.545L420.322 488.267L427.148 526.675Z" fill="#DAD6EF"/>
<path fill-rule="evenodd" clip-rule="evenodd" d="M415.926 2.86892C409.207 -0.956303 398.312 -0.956309 391.593 2.86892L157.792 135.966L156.945 135.964C153.695 135.955 148.949 140.177 148.949 143.427C148.949 171.457 148.793 233.315 148.635 295.809C148.486 354.91 148.336 414.58 148.315 446.746C148.312 450.642 151.542 453.762 155.436 453.627L155.974 453.608C156.193 453.748 156.42 453.885 156.656 454.019L391.666 587.791C398.386 591.616 409.281 591.616 416 587.791L651.011 454.019C651.767 453.588 652.438 453.128 653.025 452.644C653.361 452.583 653.693 452.525 654.006 452.472C655.251 452.26 656.302 451.356 657.058 450.344C657.846 449.291 658.066 448.095 658.066 447.196L658.623 142.776C658.623 140.636 657.261 138.733 655.235 138.043L654.468 137.782C654.059 137.642 653.688 137.409 653.385 137.099C652.864 136.568 652.152 136.269 651.408 136.27L650.263 136.271L415.926 2.86892Z" fill="url(#paint3_linear_3_49)"/>
</g>
<defs>
<linearGradient id="paint0_linear_3_49" x1="0.0597341" y1="588.208" x2="794.268" y2="594.878" gradientUnits="userSpaceOnUse">
<stop offset="0.447117" stop-color="#E0DAFF"/>
<stop offset="0.506169" stop-color="#F4F2FD"/>
<stop offset="0.609375" stop-color="#EAE7FB"/>
</linearGradient>
<linearGradient id="paint1_linear_3_49" x1="71.7113" y1="-150.21" x2="309.54" y2="248.105" gradientUnits="userSpaceOnUse">
<stop stop-color="#FAF9FE"/>
<stop offset="1" stop-color="#E8E4FF"/>
</linearGradient>
<radialGradient id="paint2_radial_3_49" cx="0" cy="0" r="1" gradientUnits="userSpaceOnUse" gradientTransform="translate(151.071 150.848) rotate(81.5721) scale(183.422 156.829)">
<stop stop-color="#00C893" stop-opacity="0.27"/>
<stop offset="1" stop-color="#00C893"/>
</radialGradient>
<linearGradient id="paint3_linear_3_49" x1="403.495" y1="-100.404" x2="403.495" y2="590.66" gradientUnits="userSpaceOnUse">
<stop offset="0.223388" stop-color="white" stop-opacity="0.28"/>
<stop offset="0.576042" stop-color="#70E0C2" stop-opacity="0.43"/>
<stop offset="1" stop-color="#00C893"/>
</linearGradient>
<clipPath id="clip0_3_49">
<rect width="808" height="904" fill="white"/>
</clipPath>
<clipPath id="clip1_3_49">
<rect width="494.175" height="216" fill="white" transform="translate(156.38 200.952)"/>
</clipPath>
</defs>
</svg>